<?xml version="1.0" encoding="UTF-8"?> <!-- Generator: Adobe Illustrator 24.2.1, SVG Export Plug-In . SVG Version: 6.00 Build 0) --> <svg xmlns="http://www.w3.org/2000/svg" xmlns:xlink="http://www.w3.org/1999/xlink" version="1.1" id="Layer_1" x="0px" y="0px" viewBox="0 0 128.1 43.5" style="enable-background:new 0 0 128.1 43.5;" xml:space="preserve"> <style type="text/css"> .st0{fill:#03D0C8;} </style> <g> <path class="st0" d="M123.9,11.9c-2.6-2.6-6.1-4-9.8-4c-7.5,0-13.4,5.7-13.8,13.1l0-12.5l-4.3,0l0,12.7c-0.1-3.5-1.5-6.8-4-9.3 c-2.6-2.6-6.1-4-9.9-4c-7.5,0-13.5,5.8-13.8,13.3c-0.4-7.3-6.5-13.2-13.9-13.2c-4.1,0-7.8,1.6-10.4,4.6c-0.6,0.7-1.2,1.5-1.7,2.3 c-1.1,1.9-1.7,4-1.8,6.2C40.1,13.7,34,7.9,26.6,7.9c-7.8,0-13.8,6.1-13.8,13.9c0,3.7,1.4,7,3.7,9.5c-1.9,0-3.4,0-3.6,0 c-4.9-0.5-8.5-4.6-8.5-9.5L4.3,0H0l0,21.8c0,7.3,5.5,13.3,12.8,13.8c0.3,0,16.8,0.1,16.8,0.1h0.8l-0.9-1l-2.7-3.2h-0.3 c-5.2-0.4-9.4-4.5-9.4-9.7c0-5.3,4.3-9.6,9.6-9.6c5.3,0,9.6,4.3,9.6,9.5c0,3.2-1.6,6.2-4.3,8l-0.5,0.3l2.8,3.4l0.5-0.3 c3.5-2.4,5.6-6.3,5.9-10.5c0.4,7.3,6.3,13,13.8,13h0c7.5,0,13.4-5.5,13.9-12.8l0,20.5h4.3l0-11.5c2.5,2.4,5.9,3.7,9.5,3.7 c7.5,0,13.7-6,13.9-13.5l0,13.5l4.3,0l0-13c0.4,7.3,6.3,13,13.8,13h0c7.8,0,13.9-6.1,13.9-13.8C128.1,18.1,126.6,14.6,123.9,11.9z M82.1,12.2c5.3,0,9.6,4.3,9.6,9.6c0,5.3-4.3,9.6-9.6,9.6c-2.2,0-4.4-0.8-6.1-2.2c-2.2-1.8-3.5-4.5-3.5-7.3 C72.5,16.4,76.9,12.2,82.1,12.2L82.1,12.2z M45.1,19.6c0.4-1.9,1.5-3.5,2.9-4.8c1.8-1.6,3.9-2.5,6.6-2.5h-0.1c2.6,0,4.9,1,6.7,2.8 c1.8,1.8,2.8,4.2,2.8,6.8c0,5.3-4.3,9.6-9.6,9.6c-5.3,0-9.6-4.3-9.6-9.6C44.8,21.1,44.9,20.3,45.1,19.6z M54.3,35.3L54.3,35.3 L54.3,35.3L54.3,35.3z M114,12.2L114,12.2c2.7,0,5.1,1,6.9,2.8c1.8,1.8,2.8,4.2,2.8,6.8c0,5.3-4.3,9.6-9.6,9.6 c-5.3,0-9.6-4.3-9.6-9.6C104.6,16.5,108.9,12.2,114,12.2z M114.2,35.3L114.2,35.3L114.2,35.3L114.2,35.3z"></path> <path class="st0" d="M98.2,4.6c1.2,0,2.2-1,2.2-2.2c0-1.2-1-2.2-2.2-2.2c-1.2,0-2.2,1-2.2,2.2C96,3.6,97,4.6,98.2,4.6z"></path> </g> </svg> 